<svg xmlns="http://www.w3.org/2000/svg" width="28" height="48.02" viewBox="0 0 28 48.02">
  <g id="Group_27" data-name="Group 27" transform="translate(-484.909 -326.48)">
    <g id="Group_26" data-name="Group 26">
      <g id="Group_14" data-name="Group 14" transform="translate(-77.091 33.5)">
        <path id="Path_158" data-name="Path 158" d="M589.5,313.5c0,13.2.5,11.5-4.3,17.3a6.125,6.125,0,0,0-4.7-2.3h-1v-2.6a10.4,10.4,0,0,0,7-9.9v.5a3.076,3.076,0,0,0,3-3Z" fill="#783e41"/>
        <path id="Path_159" data-name="Path 159" d="M565.5,310v.5a3.1,3.1,0,0,0-3,2.5v-5.1c0-7.5,5.3-14,12.8-14.4,8-.4,14.2,6,14.2,14v6h0a3.076,3.076,0,0,0-3-3V309a13.975,13.975,0,0,1-7-6v3c-3-2-3.9-7-3.9-7C572.6,308,565.5,310,565.5,310Z" fill="#783e41"/>
        <path id="Path_160" data-name="Path 160" d="M586.5,310.5a3,3,0,0,1,0,6Z" fill="#ffa893"/>
        <path id="Path_161" data-name="Path 161" d="M580.5,340.5v-12a5.933,5.933,0,0,1,5.9,6v6Z" fill="#f1777c"/>
        <path id="Path_162" data-name="Path 162" d="M586.5,316a10.5,10.5,0,0,1-21,0v-6s7.2-2,10.2-11c0,0,.9,5,3.9,7v-3a13.975,13.975,0,0,0,7,6C586.5,311.3,586.5,312.8,586.5,316Zm-7.1,3.5h-6.9a3.484,3.484,0,0,0,6.9,0Z" fill="#ffcdb8"/>
        <path id="Path_163" data-name="Path 163" d="M573.5,315h5l-2.5,2.5Z" fill="#ffa894"/>
        <rect id="Rectangle_3" data-name="Rectangle 3" width="9" height="12" transform="translate(571.5 328.5)" fill="#fff"/>
        <path id="Path_164" data-name="Path 164" d="M580.5,333.5v3a6.012,6.012,0,0,1-9,0v-3A6.012,6.012,0,0,0,580.5,333.5Z" fill="#ff9f19"/>
        <path id="Path_165" data-name="Path 165" d="M579.5,329a3.5,3.5,0,0,1-7,0v-3.1a10.507,10.507,0,0,0,7,0Z" fill="#ffa691"/>
        <path id="Path_166" data-name="Path 166" d="M572.5,325.9V328a12.5,12.5,0,0,0,7,0v-2.1A10.507,10.507,0,0,1,572.5,325.9Z" fill="#ff9379"/>
        <path id="Path_167" data-name="Path 167" d="M572.5,319.5h6.9a3.448,3.448,0,0,1-3.4,3A3.55,3.55,0,0,1,572.5,319.5Z" fill="#fff"/>
        <path id="Path_168" data-name="Path 168" d="M572.5,325.9v2.6a6.3,6.3,0,0,0-5.2,1.8L565,328c-1.9-1.9-2.4-4.4-2.4-7v-7a3.022,3.022,0,0,0,3,2.5V316A10.241,10.241,0,0,0,572.5,325.9Z" fill="#783e41"/>
        <path id="Path_169" data-name="Path 169" d="M565.5,340.5v-6a6.017,6.017,0,0,1,6-6v12Z" fill="#f1777c"/>
        <path id="Path_170" data-name="Path 170" d="M565.5,316.5a3.1,3.1,0,0,1-3-2.5v-1a3.022,3.022,0,0,1,3-2.5Z" fill="#ffa893"/>
      </g>
    </g>
    <g id="Group_25" data-name="Group 25" transform="translate(-77.091 33.5)">
      <path id="Path_323" data-name="Path 323" d="M565.5,310.5V306" fill="none" stroke="#663d3d" stroke-linecap="round" stroke-miterlimit="10" stroke-width="1"/>
      <path id="Path_324" data-name="Path 324" d="M572.5,325.9a10.057,10.057,0,0,1-3.9-2.5,10.43,10.43,0,0,1-3.1-7.4" fill="none" stroke="#663d3d" stroke-linecap="round" stroke-miterlimit="10" stroke-width="1"/>
      <path id="Path_325" data-name="Path 325" d="M586.5,316a10.4,10.4,0,0,1-7,9.9" fill="none" stroke="#663d3d" stroke-linecap="round" stroke-miterlimit="10" stroke-width="1"/>
      <path id="Path_326" data-name="Path 326" d="M586.4,306c0,.3.1.7.1,1v3.5" fill="none" stroke="#663d3d" stroke-linecap="round" stroke-miterlimit="10" stroke-width="1"/>
      <path id="Path_327" data-name="Path 327" d="M579.5,328.5h1.1a5.988,5.988,0,0,1,4.2,1.8l.5.5a5.941,5.941,0,0,1,1.3,3.7v6h-21v-6a5.644,5.644,0,0,1,1.8-4.2,5.988,5.988,0,0,1,4.2-1.8h1" fill="none" stroke="#663d3d" stroke-miterlimit="10" stroke-width="1"/>
      <path id="Path_328" data-name="Path 328" d="M579.5,325.9V329a3.5,3.5,0,0,1-7,0v-3.1a10.508,10.508,0,0,0,7,0Z" fill="none" stroke="#663d3d" stroke-miterlimit="10" stroke-width="1"/>
      <path id="Path_329" data-name="Path 329" d="M589.5,313.5a3.076,3.076,0,0,1-3,3v-6A3.076,3.076,0,0,1,589.5,313.5Z" fill="none" stroke="#663d3d" stroke-miterlimit="10" stroke-width="1"/>
      <path id="Path_330" data-name="Path 330" d="M562.5,313v1a3.022,3.022,0,0,0,3,2.5v-6A3.022,3.022,0,0,0,562.5,313Z" fill="none" stroke="#663d3d" stroke-miterlimit="10" stroke-width="1"/>
      <line id="Line_30" data-name="Line 30" y2="4" transform="translate(568.5 336.5)" fill="none" stroke="#663d3d" stroke-linecap="round" stroke-linejoin="round" stroke-miterlimit="10" stroke-width="1"/>
      <line id="Line_31" data-name="Line 31" y2="4" transform="translate(583.5 336.5)" fill="none" stroke="#663d3d" stroke-linecap="round" stroke-linejoin="round" stroke-miterlimit="10" stroke-width="1"/>
      <path id="Path_331" data-name="Path 331" d="M572.5,319.5a3.474,3.474,0,0,0,3.5,3,3.374,3.374,0,0,0,3.4-3Z" fill="none" stroke="#663d3d" stroke-linecap="round" stroke-linejoin="round" stroke-miterlimit="10" stroke-width="1"/>
      <path id="Path_332" data-name="Path 332" d="M569.5,313a1.5,1.5,0,0,1,3,0" fill="none" stroke="#663d3d" stroke-linecap="round" stroke-linejoin="round" stroke-miterlimit="10" stroke-width="1"/>
      <path id="Path_333" data-name="Path 333" d="M579.5,313a1.5,1.5,0,0,1,3,0" fill="none" stroke="#663d3d" stroke-linecap="round" stroke-linejoin="round" stroke-miterlimit="10" stroke-width="1"/>
      <path id="Path_334" data-name="Path 334" d="M567.2,330.3l-2.3-2.3c-1.9-1.9-2.4-4.4-2.4-7V307.9c0-7.5,5.3-14,12.8-14.4,8-.4,14.2,6,14.2,14v13.9c0,2.3-.3,4.6-1.8,6.4l-2.5,3" fill="none" stroke="#663d3d" stroke-linecap="round" stroke-linejoin="round" stroke-miterlimit="10" stroke-width="1"/>
      <path id="Path_335" data-name="Path 335" d="M565.5,310s7.2-2,10.2-11c0,0,.9,5,3.9,7v-3a13.975,13.975,0,0,0,7,6" fill="none" stroke="#663d3d" stroke-linecap="round" stroke-linejoin="round" stroke-miterlimit="10" stroke-width="1"/>
      <path id="Path_336" data-name="Path 336" d="M571.5,329v11.5" fill="none" stroke="#663d3d" stroke-miterlimit="10" stroke-width="1"/>
      <path id="Path_337" data-name="Path 337" d="M580.5,329v11.5" fill="none" stroke="#663d3d" stroke-miterlimit="10" stroke-width="1"/>
      <path id="Path_338" data-name="Path 338" d="M580.5,333.5a6.063,6.063,0,0,1-9,0" fill="none" stroke="#663d3d" stroke-miterlimit="10" stroke-width="1"/>
      <path id="Path_339" data-name="Path 339" d="M580.5,336.5a6.063,6.063,0,0,1-9,0" fill="none" stroke="#663d3d" stroke-miterlimit="10" stroke-width="1"/>
      <path id="Path_340" data-name="Path 340" d="M574,315.5l2,2,2-2" fill="none" stroke="#663d3d" stroke-linecap="round" stroke-linejoin="round" stroke-miterlimit="10" stroke-width="1"/>
    </g>
  </g>
</svg>
